<svg width="85" height="27" viewBox="0 0 85 27" fill="none" xmlns="http://www.w3.org/2000/svg">
<path fill-rule="evenodd" clip-rule="evenodd" d="M64.1508 3.64812L77.1013 2.51509C79.302 2.32256 81.2422 3.95052 81.4347 6.15125L82.5677 19.1018C82.7603 21.3025 81.1323 23.2426 78.9316 23.4352L65.981 24.5682C63.7803 24.7607 61.8402 23.1328 61.6476 20.9321L60.5146 7.98152C60.3221 5.78079 61.95 3.84066 64.1508 3.64812ZM58.5222 8.15583C58.2334 4.85473 60.6754 1.94454 63.9765 1.65573L76.927 0.522705C80.2281 0.233896 83.1383 2.67584 83.4271 5.97694L84.5601 18.9275C84.8489 22.2286 82.407 25.1388 79.1059 25.4276L66.1553 26.5606C62.8542 26.8494 59.944 24.4075 59.6552 21.1064L58.5222 8.15583ZM76.6829 8.25839L77.537 18.0211L75.7522 18.1772L77.5374 18.0211L76.6833 8.25836L76.6829 8.25839ZM70.0395 18.8457C70.0394 18.8457 70.0392 18.8457 70.0391 18.8457C69.9975 18.8493 69.9561 18.8525 69.9149 18.8551C69.9562 18.8525 69.9977 18.8493 70.0395 18.8457C70.0395 18.8457 70.0395 18.8457 70.0395 18.8457ZM71.955 18.2565C71.4638 18.5454 70.9135 18.7319 70.3039 18.8159C70.9136 18.7319 71.4641 18.5454 71.9554 18.2565C72.5252 17.9162 72.9616 17.4423 73.2645 16.835C73.5674 16.2276 73.6802 15.4823 73.6029 14.599L73.0758 8.57398L73.0754 8.57401L73.6025 14.599C73.6798 15.4823 73.567 16.2276 73.2641 16.835C72.9612 17.4423 72.5248 17.9162 71.955 18.2565ZM68.0109 18.7371L68.0091 18.7364C67.3797 18.4876 66.8589 18.077 66.4484 17.5085L66.4474 17.507C66.0428 16.9323 65.8058 16.1894 65.727 15.288L65.1868 9.1136L67.2708 8.93127L67.8122 15.1196C67.8771 15.8607 68.099 16.3674 68.4527 16.6723C68.8197 16.9799 69.3047 17.1152 69.9255 17.0608C70.5367 17.0074 70.9866 16.7905 71.295 16.423C71.5992 16.0604 71.7343 15.5228 71.6695 14.7822L71.1281 8.5938L73.2121 8.41147L73.7523 14.5859C73.8313 15.4885 73.7172 16.2633 73.3987 16.9019C73.0833 17.5343 72.6274 18.0299 72.0323 18.3853C71.4498 18.7279 70.7884 18.9307 70.0525 18.9951C69.3167 19.0595 68.6353 18.9746 68.0109 18.7371ZM75.6159 18.3398L74.7356 8.27819L76.8196 8.09586L77.6999 18.1574L75.6159 18.3398ZM38.3215 20.2158C37.4815 20.2158 36.7315 20.0118 36.0715 19.6038C35.4115 19.1958 34.8895 18.6378 34.5055 17.9298C34.1215 17.2218 33.9295 16.4178 33.9295 15.5178C33.9295 14.6178 34.1215 13.8198 34.5055 13.1238C34.8895 12.4158 35.4115 11.8638 36.0715 11.4678C36.7315 11.0598 37.4815 10.8558 38.3215 10.8558C38.9935 10.8558 39.5815 10.9818 40.0855 11.2338C40.5895 11.4858 40.9975 11.8398 41.3095 12.2958V7.03979H43.6135V19.9998H41.5615L41.3095 18.7218C41.0215 19.1178 40.6375 19.4658 40.1575 19.7658C39.6895 20.0658 39.0775 20.2158 38.3215 20.2158ZM38.8075 18.1998C39.5515 18.1998 40.1575 17.9538 40.6255 17.4618C41.1055 16.9578 41.3455 16.3158 41.3455 15.5358C41.3455 14.7558 41.1055 14.1198 40.6255 13.6278C40.1575 13.1238 39.5515 12.8718 38.8075 12.8718C38.0755 12.8718 37.4695 13.1178 36.9895 13.6098C36.5095 14.1018 36.2695 14.7378 36.2695 15.5178C36.2695 16.2978 36.5095 16.9398 36.9895 17.4438C37.4695 17.9478 38.0755 18.1998 38.8075 18.1998ZM0.222656 19.9998V7.39979H2.52666V12.6378H8.17866V7.39979H10.4827V19.9998H8.17866V14.5098H2.52666V19.9998H0.222656ZM15.9556 20.2158C15.1876 20.2158 14.5576 20.0958 14.0656 19.8558C13.5736 19.6038 13.2076 19.2738 12.9676 18.8658C12.7276 18.4578 12.6076 18.0078 12.6076 17.5158C12.6076 16.6878 12.9316 16.0158 13.5796 15.4998C14.2276 14.9838 15.1996 14.7258 16.4956 14.7258H18.7636V14.5098C18.7636 13.8978 18.5896 13.4478 18.2416 13.1598C17.8936 12.8718 17.4616 12.7278 16.9456 12.7278C16.4776 12.7278 16.0696 12.8418 15.7216 13.0698C15.3736 13.2858 15.1576 13.6098 15.0736 14.0418H12.8236C12.8836 13.3938 13.0996 12.8298 13.4716 12.3498C13.8556 11.8698 14.3476 11.5038 14.9476 11.2518C15.5476 10.9878 16.2196 10.8558 16.9636 10.8558C18.2356 10.8558 19.2376 11.1738 19.9696 11.8098C20.7016 12.4458 21.0676 13.3458 21.0676 14.5098V19.9998H19.1056L18.8896 18.5598C18.6256 19.0398 18.2536 19.4358 17.7736 19.7478C17.3056 20.0598 16.6996 20.2158 15.9556 20.2158ZM16.4776 18.4158C17.1376 18.4158 17.6476 18.1998 18.0076 17.7678C18.3796 17.3358 18.6136 16.8018 18.7096 16.1658H16.7476C16.1356 16.1658 15.6976 16.2798 15.4336 16.5078C15.1696 16.7238 15.0376 16.9938 15.0376 17.3178C15.0376 17.6658 15.1696 17.9358 15.4336 18.1278C15.6976 18.3198 16.0456 18.4158 16.4776 18.4158ZM23.2663 11.0718V19.9998H25.5703V15.3918C25.5703 14.5758 25.7743 13.9398 26.1823 13.4838C26.6023 13.0278 27.1363 12.7998 27.7843 12.7998C28.4443 12.7998 28.9303 13.0038 29.2423 13.4118C29.5543 13.8198 29.7103 14.4078 29.7103 15.1758V19.9998H32.0143V14.9598C32.0143 13.6158 31.7083 12.5958 31.0963 11.8998C30.4843 11.2038 29.6263 10.8558 28.5223 10.8558C27.8143 10.8558 27.1963 11.0118 26.6683 11.3238C26.1523 11.6358 25.7563 12.0558 25.4803 12.5838L25.3003 11.0718H23.2663ZM49.1457 19.4058L47.0757 23.9598H49.5237L55.1937 11.0718H52.7457L50.1357 17.3538L47.6337 11.0718H45.1317L48.6057 19.4058H49.1457Z" fill="white"/>
</svg>
