<svg width="46" height="46" viewBox="0 0 46 46" fill="none" xmlns="http://www.w3.org/2000/svg">
<path d="M39.0994 1.53336H22.2328C22.2319 0.686855 21.5459 0.000808594 20.6994 0H9.96608C9.11957 0.000808594 8.43361 0.686855 8.43271 1.53336H5.36608C3.24999 1.53588 1.53523 3.25064 1.53271 5.36673V10.7334C1.53352 11.5799 2.21957 12.2658 3.06608 12.2667H8.64016C8.90556 12.7242 9.39916 13.0328 9.96608 13.0334H10.7327V38.3334C9.88621 38.3342 9.20025 39.0202 9.19935 39.8667V41.4C9.20016 42.2465 9.88621 42.9325 10.7327 42.9334V45.2334C10.7327 45.6568 11.0759 46 11.4994 46H14.566C14.9894 46 15.3326 45.6568 15.3326 45.2334V42.9334H25.2994C25.4329 42.9334 25.5639 42.8985 25.6798 42.8323L31.0312 39.7744C31.0316 39.7742 31.0319 39.7739 31.0324 39.7737L31.0465 39.7657C31.0547 39.7609 31.0625 39.7555 31.0706 39.7506C31.0801 39.7446 31.0899 39.739 31.0991 39.7326C31.1176 39.7199 31.1355 39.7066 31.1526 39.6926C31.1566 39.6893 31.1603 39.6856 31.1643 39.6822C31.1778 39.6706 31.1911 39.6587 31.2038 39.6463C31.2098 39.6403 31.2155 39.634 31.2212 39.6279C31.2311 39.6175 31.2409 39.607 31.2502 39.5961C31.2565 39.5887 31.2626 39.5809 31.2686 39.5733C31.2764 39.5633 31.284 39.5532 31.2914 39.5428C31.2977 39.5339 31.3038 39.5251 31.3097 39.5159C31.3158 39.5064 31.3216 39.4967 31.3273 39.487C31.3333 39.4767 31.3394 39.4665 31.3449 39.456C31.3494 39.4473 31.3534 39.4385 31.3575 39.4298C31.3687 39.4065 31.3786 39.3825 31.3874 39.3579C31.3899 39.3508 31.3928 39.3438 31.3952 39.3367C31.399 39.3247 31.4022 39.3124 31.4055 39.3002C31.4083 39.2899 31.4111 39.2798 31.4134 39.2694C31.416 39.258 31.4182 39.2466 31.4201 39.235C31.4224 39.2226 31.4242 39.2102 31.4258 39.1978C31.4271 39.1875 31.4284 39.1774 31.4293 39.167C31.4307 39.1509 31.4314 39.1345 31.4317 39.1182C31.4319 39.1122 31.4326 39.1064 31.4326 39.1004V36.8004H41.3994C41.8229 36.8004 42.1661 36.4572 42.1661 36.0337C42.1661 35.6103 41.8229 35.2671 41.3994 35.2671H30.6661H26.0661H23.7661C22.9196 35.2679 22.2336 35.9539 22.2327 36.8004V38.3338H15.3327V13.0338H20.6994C21.2663 13.0333 21.76 12.7247 22.0254 12.2672H30.743C30.8424 12.7566 31.0353 13.2118 31.3018 13.6141L25.2836 19.6323L25.2831 19.6318C24.6837 19.0347 23.7144 19.0349 23.1153 19.6321L20.9462 21.8008C20.0501 22.6998 20.0501 24.1544 20.9462 25.0535L20.9466 25.0538C21.3778 25.4851 21.9629 25.7269 22.5728 25.7258C23.1828 25.7268 23.7681 25.4849 24.1993 25.0534L26.3683 22.8844C26.9655 22.285 26.9653 21.3156 26.368 20.7165L26.3678 20.7164L32.1996 14.8845V19.9338C31.3531 19.9346 30.6672 20.6207 30.6663 21.4672V23C30.6669 23.6476 31.0691 24.2 31.6369 24.4248L33.021 27.8849C33.1377 28.1758 33.4195 28.3665 33.733 28.3667V31.4334C33.733 31.8568 34.0762 32.2 34.4996 32.2C34.9231 32.2 35.2663 31.8568 35.2663 31.4334V28.3667C35.5797 28.3665 35.8616 28.1758 35.9783 27.8849L37.3623 24.4248C37.93 24.2 38.3324 23.6476 38.333 23V21.4666C38.3322 20.6201 37.6461 19.9342 36.7996 19.9333V14.5644C37.5346 14.0116 38.0647 13.2009 38.2553 12.2666H42.1663C43.4359 12.2653 44.4649 11.2363 44.4663 9.96664V6.9C44.4628 3.93749 42.062 1.53669 39.0994 1.53336ZM3.06608 5.36664C3.06743 4.09696 4.09641 3.06798 5.36608 3.06664H8.43271V10.7333H3.06608V5.36664ZM13.7994 44.4666H12.2661V42.9333H13.7994V44.4666ZM25.0958 41.4H10.7328V39.8666H22.9994H27.7791L25.0958 41.4ZM23.7661 36.8H26.0661H29.8994V38.3334H23.7661V36.8ZM13.7994 38.3334H12.2661V13.0334H13.7994V38.3334ZM20.6994 11.5H14.5661H11.4994H9.96608V2.3V1.53336H20.6994V11.5ZM23.1152 23.9684C22.8156 24.2676 22.3304 24.2678 22.0307 23.9688C21.7319 23.669 21.7319 23.1841 22.0307 22.8843L24.1993 20.7157L25.2838 21.8002L23.1152 23.9684ZM32.1994 21.4666H32.9661H36.0327H36.7994V23H32.1994V21.4666H32.1994ZM34.7469 26.8334H34.252L33.3318 24.5334H35.667L34.7469 26.8334ZM35.2661 19.9334H33.7327V15.2565C33.9804 15.3069 34.2368 15.3334 34.4994 15.3334C34.762 15.3331 35.0183 15.3062 35.266 15.2557V19.9334H35.2661ZM34.4994 13.8C34.1443 13.8 33.8081 13.7194 33.5078 13.5757L35.0415 12.042C35.3362 11.7419 35.334 11.2603 35.0366 10.9628C34.7391 10.6654 34.2576 10.6632 33.9574 10.958L32.4238 12.4916C32.28 12.1913 32.1994 11.8551 32.1994 11.5C32.1994 10.2298 33.2291 9.2 34.4994 9.2C35.7691 9.20135 36.7981 10.2303 36.7994 11.5C36.7994 12.7702 35.7697 13.8 34.4994 13.8ZM42.9328 9.96664C42.9323 10.3898 42.5893 10.7327 42.1662 10.7333H38.256C37.9008 8.98357 36.354 7.66664 34.4994 7.66664C32.6449 7.66664 31.0981 8.98366 30.7429 10.7333H22.2327V3.06664H39.0994C41.2155 3.06915 42.9303 4.78391 42.9328 6.9V9.96664Z" fill="black"/>
<path d="M26.8332 4.59961H24.5332C24.1098 4.59961 23.7666 4.94281 23.7666 5.36625C23.7666 5.78968 24.1098 6.13289 24.5332 6.13289H26.8332C27.2567 6.13289 27.5999 5.78968 27.5999 5.36625C27.5999 4.94281 27.2567 4.59961 26.8332 4.59961Z" fill="black"/>
<path d="M26.8332 7.6665H24.5332C24.1098 7.6665 23.7666 8.0098 23.7666 8.43314C23.7666 8.85657 24.1098 9.19978 24.5332 9.19978H26.8332C27.2567 9.19978 27.5999 8.85648 27.5999 8.43314C27.5999 8.0098 27.2567 7.6665 26.8332 7.6665Z" fill="black"/>
</svg>
