<svg width="46" height="46" viewBox="0 0 46 46" fill="none" xmlns="http://www.w3.org/2000/svg">
<path d="M44.4666 6.64931V5.75052C44.4653 4.48084 43.4363 3.45186 42.1666 3.45052H39.8666H32.9666C32.5432 3.45052 32.2 3.79372 32.2 4.21715V6.51715H30.6666C30.6658 5.67064 29.9798 4.98469 29.1333 4.98379H27.8556L25.3 3.06724V2.68379C25.2987 1.41412 24.2697 0.385137 23 0.383789H2.3C1.03033 0.385227 0.00134766 1.41421 0 2.68388V15.7172C0.00134766 16.9869 1.03033 18.0159 2.3 18.0172V21.0839C2.30135 22.3535 3.33033 23.3825 4.6 23.3839H4.77484C5.52916 23.3839 6.23552 23.7538 6.66515 24.3738C7.09478 24.9938 7.19307 25.785 6.92812 26.4913L2.46244 38.3997C1.82724 40.1077 2.47771 42.027 4.02051 42.9968L7.28112 45.0348C7.89026 45.4156 8.59427 45.6175 9.31266 45.6172H16.8666C18.0725 45.6145 19.2075 45.047 19.9333 44.0839L44.1116 11.846C45.1847 11.6509 45.9987 10.7129 45.9999 9.58388V8.81724C45.9989 7.81638 45.3592 6.96565 44.4666 6.64931ZM42.9334 5.75052V6.51715H40.6334V4.98388H42.1667C42.5899 4.98442 42.9328 5.32735 42.9334 5.75052ZM33.7334 4.98388H39.1V6.51724H33.7334V4.98388ZM23.7666 2.68388V15.7172C23.7661 16.1404 23.4232 16.4833 23 16.4839H8.43336V1.91715H23C23.4232 1.91769 23.7661 2.26063 23.7666 2.68388ZM1.53336 15.7172V2.68388C1.5339 2.26071 1.87684 1.91778 2.3 1.91724H6.9V16.4839H2.3C1.87684 16.4833 1.5339 16.1404 1.53336 15.7172ZM18.7066 43.1637C18.2713 43.7417 17.5902 44.0823 16.8667 44.0839H14.5389L30.7768 21.7549C30.985 21.8168 31.2052 21.8506 31.4334 21.8506C32.703 21.8493 33.732 20.8203 33.7334 19.5506C33.7334 18.2804 32.7037 17.2506 31.4334 17.2506C30.1631 17.2506 29.1334 18.2803 29.1334 19.5506C29.1334 20.0339 29.2827 20.482 29.5373 20.8523L12.6429 44.0839H9.31275C8.88168 44.084 8.45933 43.9629 8.09384 43.7342L4.83323 41.6963C3.90757 41.1145 3.51729 39.9628 3.8985 38.9381L8.36409 27.0296C8.8055 25.8524 8.64162 24.5337 7.92548 23.5003C7.20933 22.467 6.03202 21.8505 4.77484 21.8505H4.6C4.17684 21.85 3.8339 21.507 3.83336 21.0839V18.0172H23C24.2697 18.0159 25.2987 16.9869 25.3 15.7172V4.98379L27.1399 6.3637C27.2726 6.46325 27.4341 6.51715 27.6 6.51715H29.1334V7.28379V9.58379C29.1347 10.8535 30.1637 11.8824 31.4334 11.8838H42.1667L18.7066 43.1637ZM30.6666 19.5505C30.6666 19.1271 31.0098 18.7839 31.4333 18.7839C31.8564 18.7844 32.1994 19.1273 32.1999 19.5505C32.1999 19.9739 31.8567 20.3172 31.4333 20.3172C31.0098 20.3172 30.6666 19.9739 30.6666 19.5505ZM44.4666 9.58388C44.4661 10.007 44.1232 10.35 43.7 10.3505H31.4334C31.0102 10.35 30.6673 10.007 30.6667 9.58388V8.05052H32.9667H39.8667H43.7C44.1232 8.05105 44.4661 8.39399 44.4666 8.81715V9.58388Z" fill="black"/>
<path d="M19.9332 19.5503H14.1832C12.2778 19.5503 10.7332 21.0949 10.7332 23.0003C10.7332 24.664 11.9109 26.0525 13.4781 26.378C13.5773 26.424 13.6861 26.4502 13.7991 26.4503C13.8408 26.4504 13.8816 26.446 13.922 26.4394C14.0083 26.4459 14.0952 26.4503 14.1832 26.4503C14.2558 26.4503 14.3221 26.4914 14.3546 26.5562C14.387 26.6211 14.3801 26.6988 14.3366 26.7569L10.2648 32.1861C9.42135 33.3112 9.28614 34.8164 9.91558 36.0738C10.545 37.3313 11.831 38.1251 13.2372 38.1241C14.4419 38.1235 15.5713 37.5378 16.2656 36.5533L22.5034 27.7161C23.3273 26.5531 23.7687 25.1624 23.7664 23.7372V23.3838C23.764 21.2676 22.0492 19.5528 19.9332 19.5503ZM12.2664 23.0003C12.2664 21.9418 13.1245 21.0837 14.1831 21.0837H15.5454L13.4403 24.7675C12.7507 24.4773 12.2664 23.7954 12.2664 23.0003ZM22.2332 23.737C22.235 24.8456 21.8917 25.9272 21.2509 26.8318L15.0131 35.6691C14.56 36.3107 13.7965 36.6585 13.015 36.5796C12.2336 36.5006 11.5551 36.0069 11.2396 35.2876C10.9241 34.5683 11.0202 33.7348 11.4913 33.1063L15.5631 27.6771C15.9553 27.1545 16.0185 26.4551 15.7263 25.8705C15.5645 25.5469 15.309 25.2898 15.0024 25.1243L17.3114 21.0837H19.9332C21.2029 21.085 22.2319 22.114 22.2332 23.3837V23.737H22.2332Z" fill="black"/>
<path d="M36.0332 14.9503H36.7999C37.2233 14.9503 37.5665 14.6071 37.5665 14.1836C37.5665 13.7602 37.2233 13.417 36.7999 13.417H36.0332C35.6098 13.417 35.2666 13.7602 35.2666 14.1836C35.2666 14.6071 35.6098 14.9503 36.0332 14.9503Z" fill="black"/>
<path d="M32.1997 14.9503H32.9664C33.3898 14.9503 33.733 14.6071 33.733 14.1836C33.733 13.7602 33.3898 13.417 32.9664 13.417H32.1997C31.7763 13.417 31.4331 13.7602 31.4331 14.1836C31.4331 14.6071 31.7763 14.9503 32.1997 14.9503Z" fill="black"/>
<path d="M13.7068 14.2438C13.9886 14.6842 14.4755 14.9506 14.9984 14.9507H20.7C21.5465 14.9499 22.2325 14.2638 22.2334 13.4173V4.98405C22.2326 4.13754 21.5465 3.45158 20.7 3.45068H18.8904C18.2927 3.45185 17.7498 3.79928 17.4985 4.34166L13.6057 12.775C13.3868 13.2498 13.4249 13.8035 13.7068 14.2438ZM20.7 9.58404H16.7673L17.475 8.05068H20.7V9.58404ZM20.7 4.98405V6.51741H18.1827L18.8904 4.98405H20.7ZM16.0595 11.1173H20.7V13.4173H14.9979L16.0595 11.1173Z" fill="black"/>
</svg>
