<svg width="46" height="46" viewBox="0 0 46 46" fill="none" xmlns="http://www.w3.org/2000/svg">
<g clip-path="url(#clip0)">
<path d="M26.8335 13.0329V8.43288C26.8321 7.1632 25.8031 6.13422 24.5335 6.13288H24.4032C24.1313 6.13081 23.8613 6.17906 23.6069 6.2751L6.16041 12.3437C5.22658 12.6689 4.60064 13.5493 4.6001 14.5381V14.5433C4.60163 15.8256 5.64076 16.8646 6.92292 16.8662H23.0001C25.1162 16.8637 26.831 15.149 26.8335 13.0329ZM6.13346 14.5434V14.5382C6.13364 14.202 6.34648 13.9027 6.6639 13.7922L24.1378 7.7135C24.2225 7.68124 24.3125 7.66525 24.4032 7.66633H24.5335C24.9566 7.66687 25.2996 8.0098 25.3001 8.43297V13.033C25.2988 14.3026 24.2698 15.3316 23.0001 15.333H6.92292C6.48709 15.3324 6.13391 14.9793 6.13346 14.5434Z" fill="black"/>
<path d="M45.2334 32.1995H36.0334V29.1329H36.8C38.9161 29.1304 40.6308 27.4156 40.6334 25.2995V18.4935C40.6333 17.8646 40.5629 17.2377 40.4238 16.6244L37.3233 2.98352C36.9335 1.234 35.3779 -0.00782286 33.5855 -0.000455676H24.4053C23.3833 -0.00108458 22.3697 0.184712 21.4143 0.547591L2.47412 7.73213C0.988551 8.30147 0.00566016 9.72531 0 11.3162V25.2995C0.00251562 27.4156 1.71727 29.1304 3.83336 29.1329H9.683L14.8344 33.5484C14.8364 33.5502 14.8388 33.5517 14.8409 33.5535C14.8482 33.5596 14.8558 33.5652 14.8633 33.571C14.8744 33.5796 14.8854 33.5882 14.8968 33.5961C14.9057 33.6023 14.915 33.608 14.9242 33.6138C14.9347 33.6204 14.9452 33.627 14.9561 33.6331C14.9664 33.6389 14.9771 33.6444 14.9877 33.6498C14.998 33.6549 15.0082 33.66 15.0185 33.6646C15.03 33.6697 15.0415 33.6746 15.0531 33.6792C15.0635 33.6832 15.0739 33.687 15.0844 33.6906C15.0963 33.6947 15.1082 33.6986 15.1203 33.7021C15.1316 33.7053 15.1429 33.7081 15.1542 33.7108C15.1659 33.7136 15.1775 33.7165 15.1893 33.7187C15.203 33.7213 15.2168 33.7231 15.2307 33.725C15.2405 33.7263 15.2502 33.728 15.2601 33.729C15.2843 33.7313 15.3087 33.7326 15.3332 33.7326H26.8332H31.4332V43.6995C31.4345 44.9692 32.4635 45.9982 33.7332 45.9995H34.5C35.3465 45.9987 36.0325 45.3127 36.0334 44.4662V33.7329H45.2334C45.6568 33.7329 46 33.3897 46 32.9663C46 32.5428 45.6568 32.1995 45.2334 32.1995ZM34.5 32.1995H32.9666V29.1329H34.5V32.1995ZM1.53336 25.2995V11.3162C1.53669 10.3618 2.12642 9.50753 3.01767 9.16594L21.9578 1.98141C22.7396 1.68438 23.569 1.53237 24.4053 1.53291H33.5855C34.6609 1.52851 35.5943 2.27367 35.8282 3.3234L38.9285 16.9639C39.0423 17.4658 39.0998 17.9789 39.0999 18.4935V25.2995C39.0986 26.5692 38.0696 27.5982 36.7999 27.5995H35.2665H32.2H29.9882C29.9757 27.5982 29.9636 27.5955 29.951 27.5948C29.9062 27.592 29.8621 27.5946 29.8183 27.5995H3.83336C2.56369 27.5982 1.53471 26.5692 1.53336 25.2995ZM15.6171 32.1995L12.0392 29.1329H28.4675L26.423 32.1995H15.6171ZM28.2658 32.1995L30.3103 29.1329H31.4334V32.1995H28.2658ZM34.5 44.4663H33.7334C33.3102 44.4657 32.9673 44.1228 32.9667 43.6996V33.7329H34.5V44.4663Z" fill="black"/>
<path d="M34.5 25.2994C35.7697 25.2981 36.7987 24.2691 36.8 22.9994V20.6994C36.7987 19.4297 35.7697 18.4008 34.5 18.3994H24.5334C23.2637 18.4008 22.2347 19.4297 22.2334 20.6994V22.9994C22.2347 24.2691 23.2637 25.2981 24.5334 25.2994H34.5ZM23.7668 22.9994V20.6994C23.7673 20.2763 24.1102 19.9333 24.5334 19.9328H34.5C34.9232 19.9333 35.2661 20.2763 35.2667 20.6994V22.9994C35.2661 23.4226 34.9232 23.7655 34.5 23.7661H24.5334C24.1102 23.7656 23.7673 23.4227 23.7668 22.9994Z" fill="black"/>
<path d="M14.5669 18.3994C14.1435 18.3994 13.8003 18.7427 13.8003 19.166V24.5327C13.8003 24.9561 14.1435 25.2993 14.5669 25.2993C14.9904 25.2993 15.3336 24.956 15.3336 24.5327V19.166C15.3336 18.7427 14.9903 18.3994 14.5669 18.3994Z" fill="black"/>
<path d="M11.5 18.3994C11.0766 18.3994 10.7334 18.7427 10.7334 19.166V24.5327C10.7334 24.9561 11.0766 25.2993 11.5 25.2993C11.9235 25.2993 12.2667 24.956 12.2667 24.5327V19.166C12.2668 18.7427 11.9235 18.3994 11.5 18.3994Z" fill="black"/>
<path d="M8.43314 18.3994C8.00971 18.3994 7.6665 18.7427 7.6665 19.166V24.5327C7.6665 24.9561 8.0098 25.2993 8.43314 25.2993C8.85657 25.2993 9.19978 24.956 9.19978 24.5327V19.166C9.19978 18.7427 8.85657 18.3994 8.43314 18.3994Z" fill="black"/>
<path d="M5.36674 18.3994C4.9433 18.3994 4.6001 18.7427 4.6001 19.166V24.5327C4.6001 24.9561 4.9433 25.2993 5.36674 25.2993C5.79017 25.2993 6.13337 24.956 6.13337 24.5327V19.166C6.13337 18.7427 5.79008 18.3994 5.36674 18.3994Z" fill="black"/>
</g>
<defs>
<clipPath id="clip0">
<rect width="46" height="46" fill="white"/>
</clipPath>
</defs>
</svg>
