<svg width="46" height="46" viewBox="0 0 46 46" fill="none" xmlns="http://www.w3.org/2000/svg">
<path d="M44.0885 27.8183C47.6995 21.1929 46.0922 12.8506 40.1292 8.05744C34.9051 3.85814 27.7394 3.51036 22.2148 6.81762L20.6886 5.29165C20.9326 4.96472 21.0418 4.55252 20.9851 4.14222C20.923 3.70801 20.656 3.33022 20.2675 3.12664L14.6453 0.16527C14.0499 -0.127884 13.3334 -0.00390236 12.8709 0.47226L12.2001 1.14311C11.6035 1.70669 11.5745 2.64653 12.1353 3.24577L16.9049 8.01521C16.9051 8.01548 16.9053 8.01566 16.9056 8.01584C16.906 8.01629 16.9063 8.01674 16.9067 8.0171L20.1576 11.2679L20.8141 11.9243C17.6208 15.5284 16.7362 20.6611 18.5961 25.1507C20.5542 29.8772 25.1666 32.9589 30.2827 32.9588C33.3823 32.9642 36.365 31.8262 38.669 29.7794L39.8845 30.9948C39.8848 30.9984 39.8854 31.002 39.8858 31.0056C36.9576 31.9214 34.849 34.5037 34.5398 37.5587H20.6996V35.2587C20.6982 33.9891 19.6693 32.9601 18.3996 32.9588H3.83329C2.56364 32.9601 1.53468 33.9891 1.53333 35.2587V37.5587C0.686842 37.5595 0.000808578 38.2454 0 39.0919V40.6253C0.000808578 41.4717 0.686842 42.1577 1.53333 42.1586V44.4585C1.53414 45.305 2.22018 45.991 3.06667 45.9919H4.59991C5.4464 45.9911 6.13235 45.305 6.13324 44.4585V42.1586H39.866V44.4585C39.8668 45.305 40.5528 45.991 41.3993 45.9919H42.9326C43.7791 45.9911 44.465 45.305 44.466 44.4585V42.1586C45.3124 42.1578 45.9984 41.4717 45.9993 40.6253V38.3253V32.9588C46.0002 32.5863 45.9073 32.2234 45.7359 31.8993C45.9042 31.5199 45.9987 31.1005 45.9993 30.6588C45.9991 29.3743 45.2089 28.2748 44.0885 27.8183ZM42.9325 32.1921C42.3175 32.1921 41.7885 31.8291 41.5442 31.3064C41.5328 31.2731 41.5187 31.2405 41.5026 31.2089C41.4367 31.0379 41.3992 30.8529 41.3992 30.6587C41.3992 29.8119 42.0857 29.1254 42.9325 29.1254C43.779 29.1262 44.465 29.8122 44.4659 30.6587C44.4658 31.5056 43.7793 32.1921 42.9325 32.1921ZM39.464 9.49617C44.7778 14.0088 46.0115 21.6976 42.4262 27.6346C41.4837 27.7912 40.6867 28.3771 40.2429 29.1851L39.2482 28.1904C39.2351 28.1762 39.2214 28.1626 39.2072 28.1494L35.701 24.6432C35.7008 24.643 35.7007 24.6429 35.7006 24.6427C35.7005 24.6425 35.7003 24.6425 35.7002 24.6424L25.9491 14.8912C25.949 14.8911 25.949 14.8911 25.9489 14.891L22.4421 11.3842C22.4291 11.3702 22.4157 11.3567 22.4017 11.3438L20.8097 9.75186C26.0889 5.0135 34.0569 4.90426 39.464 9.49617ZM34.041 25.1512C32.5385 26.3218 30.5607 26.7366 28.6926 26.2371C26.5749 25.6709 24.9208 24.0168 24.3546 21.8991C23.8552 20.031 24.27 18.0533 25.4405 16.5507L34.041 25.1512ZM13.9304 1.52152L19.422 4.41408L17.447 6.38907L13.2847 2.22678L13.9304 1.52152ZM19.6184 6.38988L20.9152 7.68639C20.5058 7.99087 20.1078 8.31708 19.7237 8.66594L18.5329 7.47508L19.6184 6.38988ZM27.4052 31.0485C23.5681 30.0208 20.5709 27.0236 19.5432 23.1865C18.5822 19.598 19.4805 15.7852 21.8991 13.0094L24.3503 15.4607C22.5747 17.6284 22.1115 20.6181 23.1991 23.2448C24.3855 26.1098 27.1818 27.9774 30.2828 27.9755C32.0595 27.9794 33.7729 27.3617 35.1331 26.2433L37.5823 28.6926C34.8065 31.1112 30.9937 32.0095 27.4052 31.0485ZM40.4363 32.4389C40.9924 33.2173 41.9028 33.7253 42.9324 33.7253C43.4913 33.7247 44.0146 33.574 44.4658 33.3126V37.5586H36.0821C36.3869 35.1488 38.0936 33.1302 40.4363 32.4389ZM3.06658 35.2586C3.06712 34.8355 3.41004 34.4925 3.8332 34.492H18.3996C18.8228 34.4925 19.1657 34.8355 19.1663 35.2586V37.5586H3.06658V35.2586ZM4.60099 44.4585H3.06658V42.1585H4.60027L4.60099 44.4585ZM42.9336 44.4585H41.3992V42.1585H42.9329L42.9336 44.4585ZM43.6991 40.6253H40.6326H5.36653H2.29996H1.53333V39.0919H2.29996H19.933H35.266H44.4662L44.4669 40.6253H43.6991Z" fill="black"/>
</svg>
