<svg width="22" height="14" viewBox="0 0 22 14" fill="none" xmlns="http://www.w3.org/2000/svg">
<path fill-rule="evenodd" clip-rule="evenodd" d="M3 1C3 0.447716 3.44775 0 4 0H21C21.5522 0 22 0.447716 22 1C22 1.55228 21.5522 2 21 2H4C3.44775 2 3 1.55228 3 1ZM0 7C0 6.44772 0.447754 6 1 6H21C21.5522 6 22 6.44772 22 7C22 7.55228 21.5522 8 21 8H1C0.447754 8 0 7.55228 0 7ZM9 12C8.44775 12 8 12.4477 8 13C8 13.5523 8.44775 14 9 14H21C21.5522 14 22 13.5523 22 13C22 12.4477 21.5522 12 21 12H9Z" fill="white"/>
</svg>
